M48
;Layer_Color=9474304
;FILE_FORMAT=4:4
METRIC,LZ
;TYPE=PLATED
T01F00S00C0.7112
T02F00S00C0.7300
T03F00S00C0.7500
T04F00S00C0.8000
T05F00S00C0.9400
T06F00S00C1.0000
T07F00S00C1.0500
T08F00S00C1.3100
T09F00S00C1.3700
T10F00S00C1.6500
T11F00S00C1.9698
T12F00S00C2.0000
;TYPE=NON_PLATED
T13F00S00C1.1000
T14F00S00C1.3000
%
T01
X00640334Y00810604
T02
X0043721Y0072517
Y0075057
Y0077597
X0035781
Y0075057
Y0072517
Y0080137
X0043721
T03
X0090805Y0077121
Y0079121
X0097282Y0079343
Y0077343
X005026Y0062865
X004826
X0048387Y0054864
X0050387
X0059817Y0044069
X0061817
T04
X0036576Y0039234
X0041275Y0039361
X0083693Y0048133
X0089154Y004787
Y006477
X0083693Y0065033
X0083566Y0071755
X0077597Y0071882
X0070739
X0070612Y0064897
X0077089Y0065024
Y0048124
X0070612Y0047997
X0041275Y0056261
X0036576Y0056134
X0030226Y0052442
Y0069342
X0070739Y0088782
X0077597
X0083566Y0088655
T05
X0059944Y0059182
X0061214Y0060452
X0058674
X005842Y0066167
X005969Y0067437
X006096Y0066167
T06
X0048006Y0034544
X0050006
X0052006
X009906Y0053118
Y0055118
Y0057118
T07
X0052197Y0073406
X0056388Y0073279
Y0087379
X0052197Y0087506
T08
X0079256Y0034798
X0082296
X0085336
T09
X0067056Y0034925
X0069591
X0072126
T10
X0100711Y0037084
Y0041084
T11
X0088202Y0086028
X0087702Y0093628
X0092202Y0097028
X0094702Y0090628
X0097402Y0089228
T12
X0030099Y0028575
X0104902
X0030099Y010033
X0104902
T13
X0054056Y0033044
X010056Y0059168
T14
X0096211Y0035434
M30
