G04*
G04 #@! TF.GenerationSoftware,Altium Limited,Altium Designer,23.9.2 (47)*
G04*
G04 Layer_Physical_Order=1*
G04 Layer_Color=255*
%FSLAX44Y44*%
%MOMM*%
G71*
G04*
G04 #@! TF.SameCoordinates,F81C6849-98B2-4F71-9394-E41489A2B151*
G04*
G04*
G04 #@! TF.FilePolarity,Positive*
G04*
G01*
G75*
%ADD12C,0.2540*%
%ADD33C,1.2000*%
%ADD34R,1.1500X1.1500*%
%ADD35C,1.1500*%
%ADD36C,1.4400*%
%ADD37C,1.5000*%
%ADD38C,0.5500*%
%ADD39C,1.1300*%
%ADD40R,1.1300X1.1300*%
%ADD41C,1.5240*%
%ADD42R,1.1500X1.1500*%
%ADD43C,2.4750*%
%ADD44C,0.6500*%
%ADD45C,2.9550*%
%ADD46C,2.0550*%
%ADD47R,2.0550X2.0550*%
%ADD48C,1.9650*%
%ADD49R,1.9650X1.9650*%
%ADD50R,1.5750X1.5750*%
%ADD51C,1.5750*%
%ADD52C,1.2700*%
%ADD53C,0.6350*%
G36*
X335978Y967053D02*
X336233Y966797D01*
X336438Y966081D01*
X336387Y964393D01*
X336438Y962807D01*
X336336Y962500D01*
X336438Y961170D01*
X336336Y960761D01*
X336182Y960608D01*
X335466Y960403D01*
X333829Y960505D01*
X302217Y960403D01*
X301961Y960147D01*
X301347Y958817D01*
X301398Y957743D01*
X301347Y946234D01*
X301450Y945927D01*
X301705Y945262D01*
X301961Y944904D01*
X302626Y944648D01*
X303342Y944546D01*
X335722Y944597D01*
X336131Y944495D01*
X336438Y944188D01*
X336540Y943779D01*
X336489Y939635D01*
X336591Y939124D01*
X336643Y938459D01*
X336387Y938101D01*
X335875Y937896D01*
X300171Y937998D01*
X299864Y938101D01*
X299454Y938203D01*
X298329Y938714D01*
X297613Y938919D01*
X297101Y939226D01*
X296590Y939737D01*
X296385Y939840D01*
X295925Y940198D01*
X295516Y940914D01*
X295311Y941016D01*
X295209Y941221D01*
X294902Y941937D01*
Y942244D01*
X294851Y942295D01*
X294748Y942909D01*
X294646Y943420D01*
X294442Y944239D01*
X294390Y945518D01*
X294493Y945620D01*
X294390Y945927D01*
X294493Y961170D01*
X294595Y961477D01*
X294800Y962296D01*
X294953Y963165D01*
X295158Y963677D01*
X295311Y963830D01*
X295362Y963984D01*
X295567Y964086D01*
X295823Y964342D01*
X295925Y964547D01*
X296437Y965263D01*
X296999Y965518D01*
X297204Y965621D01*
X297766Y966081D01*
X297920Y966235D01*
X298636Y966439D01*
X299352Y966542D01*
X301040Y966899D01*
X301654Y967002D01*
X303086Y967104D01*
X333932Y967155D01*
X334238Y967053D01*
X335568Y967155D01*
X335978Y967053D01*
D02*
G37*
G36*
X412911Y967462D02*
X413474Y967002D01*
X413628Y966848D01*
X413832Y966746D01*
X414548Y966337D01*
X415469Y965416D01*
X415674Y965314D01*
X416083Y964700D01*
X416646Y964137D01*
X417055Y963012D01*
X417464Y962398D01*
X417669Y961682D01*
X417771Y960966D01*
X417669Y960147D01*
X417515Y959892D01*
X417106Y959789D01*
X416032Y959840D01*
X415520Y959533D01*
X415418Y959329D01*
X415316Y959022D01*
X415264Y958562D01*
X415316Y946438D01*
Y946336D01*
X415367Y937282D01*
X415213Y936924D01*
X414958Y936668D01*
X414548Y936566D01*
X412860Y936617D01*
X410865Y936566D01*
X410661Y936668D01*
X410354Y936566D01*
X408717Y936668D01*
X408461Y936924D01*
X408359Y937640D01*
X408256Y958511D01*
X408052Y958715D01*
X408001Y958868D01*
X407796Y958971D01*
X407285Y959175D01*
X405597Y959124D01*
X394394Y959175D01*
X394087Y959073D01*
X393064Y959175D01*
X392297Y959022D01*
X391837Y958971D01*
X391274Y959431D01*
X391171Y960147D01*
X391274Y965263D01*
X391632Y965621D01*
X394803Y965518D01*
X409280Y965570D01*
X410252Y965518D01*
X410712Y965876D01*
X411019Y966593D01*
X411428Y967309D01*
X411991Y967564D01*
X412911Y967462D01*
D02*
G37*
G36*
X476136Y966439D02*
X476494Y966081D01*
X476597Y965467D01*
X476494Y965160D01*
X476392Y960147D01*
X476136Y959892D01*
X475727Y959789D01*
X474397Y959892D01*
X442580Y959789D01*
X442068Y959585D01*
X441506Y959329D01*
X441301Y958817D01*
X441404Y944801D01*
X441864Y944239D01*
X442068Y944137D01*
X442580Y943932D01*
X476443Y943830D01*
X476699Y943267D01*
X476597Y941323D01*
X476494Y937538D01*
X476239Y937282D01*
X475829Y937180D01*
X474806Y937282D01*
X464780D01*
X441250Y937384D01*
X440943Y937487D01*
X440278Y937640D01*
X439767Y937742D01*
X439153Y937845D01*
X438181Y937998D01*
X437465Y938510D01*
X436544Y939021D01*
X435368Y940198D01*
X435265Y940607D01*
X434958Y941118D01*
X434754Y941323D01*
X434447Y942039D01*
X434344Y943983D01*
X434447Y961887D01*
X434856Y962603D01*
X435061Y962807D01*
X435163Y963012D01*
X435470Y963728D01*
X435572Y963933D01*
X435726Y964188D01*
X435930Y964291D01*
X436493Y964751D01*
X437056Y965314D01*
X437772Y965518D01*
X438590Y965825D01*
X439102Y966132D01*
X439818Y966337D01*
X440841Y966439D01*
X444933Y966542D01*
X476136Y966439D01*
D02*
G37*
G36*
X307434Y954674D02*
X322013Y954725D01*
X322524Y954418D01*
X322627Y954009D01*
X322524Y952577D01*
X322627Y952270D01*
X322524Y950633D01*
X322166Y950173D01*
X321757Y950070D01*
X320427Y950173D01*
X316130D01*
X304519Y950121D01*
X304161Y950275D01*
X303905Y950837D01*
X303854Y954060D01*
X304058Y954572D01*
X304570Y954776D01*
X307434Y954674D01*
D02*
G37*
G36*
X385084Y966439D02*
X385442Y966081D01*
X385494Y965416D01*
X385391Y937896D01*
X385238Y937538D01*
X385084Y937384D01*
X384675Y937282D01*
X384368Y937180D01*
X384061Y937282D01*
X376593Y937384D01*
X376286Y937487D01*
X375467Y937691D01*
X374035Y937896D01*
X373370Y938049D01*
X373012Y938305D01*
X372603Y938714D01*
X371631Y939072D01*
X370864Y939840D01*
X370659Y939942D01*
X369585Y941016D01*
X369483Y941221D01*
X368664Y942039D01*
X368562Y942244D01*
X368204Y942704D01*
X367999Y942806D01*
X367641Y943165D01*
X367334Y943676D01*
X367079Y943932D01*
X366874Y944034D01*
X366465Y944648D01*
X365800Y945313D01*
X365697Y945518D01*
X365237Y946080D01*
X364777Y946541D01*
X364674Y946745D01*
X364214Y947308D01*
X363754Y947768D01*
X363651Y947973D01*
X363191Y948536D01*
X362935Y948689D01*
X362833Y948894D01*
X362373Y949456D01*
X362066Y949763D01*
X361912Y949815D01*
X361810Y950019D01*
X361349Y950582D01*
X360787Y951144D01*
X360480Y951656D01*
X360326Y951809D01*
X360122Y951912D01*
X359712Y952526D01*
X359457Y952884D01*
X359303Y953037D01*
X359099Y953139D01*
X358689Y953753D01*
X358536Y953907D01*
X358485Y954060D01*
X358280Y954163D01*
X358024Y954418D01*
X357922Y954623D01*
X357462Y955288D01*
X357257Y955390D01*
X356797Y955851D01*
X356694Y956055D01*
X356439Y956413D01*
X356234Y956516D01*
X355876Y956874D01*
X355569Y957385D01*
X354853Y958101D01*
X354751Y958306D01*
X354597Y958459D01*
X353728Y958920D01*
X353625Y959124D01*
X353369Y959380D01*
X352551Y959585D01*
X351937Y959687D01*
X351324Y959892D01*
X350761Y959533D01*
X350556Y959022D01*
X350658Y956771D01*
X350556Y937640D01*
X350300Y937384D01*
X349891Y937282D01*
X347231D01*
X344264Y937384D01*
X344009Y937640D01*
X343906Y938356D01*
X344009Y966183D01*
X344264Y966439D01*
X344674Y966542D01*
X353676Y966439D01*
X353983Y966337D01*
X354546Y966183D01*
X355058Y965979D01*
X355211Y965825D01*
X355723Y965621D01*
X356132Y965518D01*
X356797Y965263D01*
X357462Y964598D01*
X358178Y964188D01*
X358996Y963370D01*
X359201Y963268D01*
X359764Y962705D01*
X359866Y962500D01*
X360480Y961887D01*
X360582Y961682D01*
X360889Y961375D01*
X360991Y961170D01*
X361707Y960454D01*
X361810Y960250D01*
X362270Y959687D01*
X362628Y959431D01*
X362730Y959227D01*
X363191Y958664D01*
X363651Y958306D01*
X363958Y957794D01*
X364674Y957078D01*
X364981Y956567D01*
X365135Y956413D01*
X365339Y956311D01*
X365493Y956157D01*
X365595Y955953D01*
X366055Y955390D01*
X366516Y954930D01*
X366618Y954725D01*
X367079Y954163D01*
X367641Y953600D01*
X367743Y953395D01*
X368102Y952935D01*
X368306Y952832D01*
X368562Y952577D01*
X368664Y952372D01*
X369125Y951809D01*
X369329Y951707D01*
X369585Y951451D01*
X369892Y950940D01*
X370506Y950326D01*
X370608Y950121D01*
X370966Y949661D01*
X371171Y949559D01*
X371427Y949303D01*
X371529Y949098D01*
X371989Y948536D01*
X372449Y948075D01*
X372552Y947871D01*
X373012Y947308D01*
X373575Y946745D01*
X373677Y946541D01*
X374035Y946080D01*
X374240Y945978D01*
X374547Y945671D01*
X374700Y945620D01*
X374803Y945415D01*
X375263Y944955D01*
X375928Y944699D01*
X376286Y944546D01*
X376849Y944085D01*
X377309Y943932D01*
X377718Y943830D01*
X378332Y944034D01*
X378588Y944290D01*
X378690Y945006D01*
X378588Y945415D01*
X378639Y964904D01*
X378588Y966081D01*
X378946Y966439D01*
X379662Y966542D01*
X385084Y966439D01*
D02*
G37*
G36*
X359508Y929916D02*
X359661Y929558D01*
Y929456D01*
X359406Y929200D01*
X357666Y929098D01*
X356643Y928484D01*
X356336Y928586D01*
X355927Y928995D01*
X355723Y929098D01*
X355416Y929200D01*
X354086Y929302D01*
X353932Y929763D01*
X354290Y930121D01*
X355671Y930070D01*
X357666Y930121D01*
X357973Y930018D01*
X358689Y930121D01*
X358996Y930223D01*
X359508Y929916D01*
D02*
G37*
G36*
X374291Y928842D02*
X374189Y928535D01*
X374035Y928382D01*
X372961Y928433D01*
X372091Y928074D01*
X371887D01*
X371836Y928023D01*
X371682Y927972D01*
X371427Y928126D01*
X371529Y928739D01*
X371887Y929098D01*
X373473Y929046D01*
X373933Y929098D01*
X374291Y928842D01*
D02*
G37*
G36*
X431940Y930018D02*
X432452Y929814D01*
X432759Y929916D01*
X433577D01*
X435879Y929967D01*
X436084Y929865D01*
X436135Y929405D01*
X435828Y928995D01*
X432554Y929098D01*
X432247Y929200D01*
X431684Y928739D01*
X431275Y928126D01*
X431582Y927614D01*
X431838Y927358D01*
X432247Y927256D01*
X433884Y927358D01*
X436237Y927256D01*
X436493Y927000D01*
X436390Y926489D01*
X436237Y926335D01*
X435419Y926131D01*
X435009Y926233D01*
X430866Y926182D01*
X430508Y926438D01*
X430354Y926898D01*
X430406Y928484D01*
X430303Y928995D01*
X430252Y929456D01*
X430559Y929967D01*
X430713Y930121D01*
X431940Y930018D01*
D02*
G37*
G36*
X392041Y928995D02*
X392092Y928944D01*
X392297Y928433D01*
X392195Y926386D01*
X392041Y926233D01*
X391427Y926335D01*
X391274Y926796D01*
X391376Y927717D01*
X390916Y928279D01*
X390609Y928382D01*
X390353Y928126D01*
X390148Y927614D01*
X390251Y926591D01*
X389995Y926233D01*
X389586Y926131D01*
X389381Y926233D01*
X389125Y926489D01*
X389176Y927768D01*
X388767Y928279D01*
X388051Y928177D01*
X387540Y927972D01*
X386772Y928023D01*
X386670Y927717D01*
X386875Y927000D01*
X386772Y926693D01*
X386619Y926540D01*
X386107Y926335D01*
X385494Y926438D01*
X385340Y926591D01*
X385391Y927870D01*
X384880Y928074D01*
X384470Y928177D01*
X383754Y928074D01*
X383498Y927819D01*
X383396Y927410D01*
X383498Y927000D01*
X383396Y926489D01*
X383243Y926335D01*
X382680Y926386D01*
X382578Y926796D01*
X382476Y927921D01*
X382117Y928382D01*
X381708Y928279D01*
X381555Y928126D01*
X381350Y927614D01*
X381401Y926642D01*
X381248Y926284D01*
X380788Y926131D01*
X380429Y926386D01*
X380225Y927103D01*
X380327Y928637D01*
X380685Y929098D01*
X381094Y929200D01*
X381657Y929046D01*
X382117Y928893D01*
X382629Y929098D01*
X384010Y929046D01*
X384880Y929098D01*
X385596Y928688D01*
X386312Y928382D01*
X386721Y928484D01*
X387233Y928995D01*
X387949Y929098D01*
X388870Y928995D01*
X389176Y929098D01*
X389893Y929200D01*
X390200Y929098D01*
X390609Y928995D01*
X391632Y929200D01*
X392041Y928995D01*
D02*
G37*
G36*
X321246D02*
X321501Y928739D01*
X321399Y928126D01*
X320734Y928074D01*
X319813Y928484D01*
X319097Y928382D01*
X318739Y928023D01*
X318637Y927614D01*
X318893Y927154D01*
X319609Y926949D01*
X320223Y927051D01*
X320939Y927358D01*
X321348Y927256D01*
X321501Y926796D01*
X321399Y926386D01*
X321246Y926233D01*
X320836Y926131D01*
X319558Y926182D01*
X318893Y926131D01*
X318586Y926233D01*
X317869Y926642D01*
X317716Y926796D01*
X317512Y927307D01*
X317409Y928330D01*
X317460Y928586D01*
X317512Y928637D01*
X318176Y928893D01*
X318995Y929098D01*
X320120Y928995D01*
X320427Y929098D01*
X320887Y929149D01*
X321246Y928995D01*
D02*
G37*
G36*
X350045Y929763D02*
X350249Y929251D01*
X350096Y928074D01*
X350045Y927410D01*
X350147Y927103D01*
X350045Y926489D01*
X349789Y926233D01*
X349380Y926131D01*
X347640Y926233D01*
X347436Y926131D01*
X347129Y926233D01*
X346515Y926335D01*
X346157Y926591D01*
X345952Y927103D01*
X346055Y928637D01*
X346106Y928688D01*
X346515Y929098D01*
X347743Y928995D01*
X348050Y928893D01*
X348561Y928995D01*
X348766Y929200D01*
X348970Y929302D01*
X349124Y929456D01*
X349226Y929660D01*
X349380Y929814D01*
X349789Y929916D01*
X350045Y929763D01*
D02*
G37*
G36*
X326156Y928995D02*
X326514Y928637D01*
X326412Y928023D01*
X325952Y927870D01*
X324622Y928484D01*
X324110Y928382D01*
X323548Y927921D01*
X323445Y927512D01*
X323548Y926796D01*
X323445Y926386D01*
X323292Y926233D01*
X322985Y926131D01*
X322473Y926438D01*
X322217Y927103D01*
X322115Y927512D01*
Y927819D01*
Y927921D01*
X322627Y928842D01*
X322882Y929098D01*
X324110Y928995D01*
X324417Y928893D01*
X325133Y928995D01*
X325440Y929098D01*
X326156Y928995D01*
D02*
G37*
G36*
X296385Y930018D02*
X296795Y929814D01*
X297101Y929916D01*
X300529Y929967D01*
X300733Y929456D01*
X300631Y929149D01*
X300478Y928995D01*
X300068Y928893D01*
X299045Y928995D01*
X297204Y929098D01*
X296692Y929302D01*
X296130Y928739D01*
X296027Y928330D01*
X296130Y927614D01*
X296488Y927256D01*
X299045Y927358D01*
X300682Y927256D01*
X300836Y927103D01*
X300938Y926693D01*
X300784Y926335D01*
X300273Y926131D01*
X298022Y926233D01*
X296897D01*
X295567Y926131D01*
X295055Y926438D01*
X294902Y926898D01*
X294800Y927410D01*
X294902Y927717D01*
X294851Y929405D01*
X294953Y929814D01*
X295158Y930018D01*
X295567Y930121D01*
X296385Y930018D01*
D02*
G37*
G36*
X446365Y928688D02*
X446468Y928279D01*
X446519Y926898D01*
X446417Y926591D01*
X446314Y926182D01*
X446058Y925517D01*
X445854Y925312D01*
X445138Y925210D01*
X444575Y925363D01*
X443603Y925415D01*
X443296Y925312D01*
X442478Y925415D01*
X442324Y925568D01*
X442426Y925977D01*
X442478Y926029D01*
X443092Y926642D01*
X443910Y926540D01*
X444217Y926438D01*
X444728Y926540D01*
X444984Y926796D01*
X445087Y927205D01*
X444984Y927921D01*
X444524Y928484D01*
X444217Y928586D01*
X443910Y928484D01*
X443143Y927717D01*
X443040Y927512D01*
X442580Y927461D01*
X442222Y927819D01*
X442324Y928739D01*
X442478Y928995D01*
X442887Y929098D01*
X443705Y928995D01*
X444217Y928791D01*
X444728Y928995D01*
X445649Y929098D01*
X446365Y928688D01*
D02*
G37*
G36*
X306718Y928995D02*
X306872Y928842D01*
X306769Y928228D01*
X306258Y927717D01*
X306360Y927307D01*
X306565Y927103D01*
X306667Y926693D01*
X306616Y926438D01*
X305900Y926233D01*
X305593Y926335D01*
X304621Y926182D01*
X304468Y926131D01*
X304161Y926233D01*
X303956Y926335D01*
X303700Y926591D01*
X303598Y927307D01*
X303700Y927614D01*
X303598Y927819D01*
X303496Y928126D01*
X303598Y928535D01*
X304058Y928995D01*
X304468Y929098D01*
X305184Y928791D01*
X305593Y928893D01*
X306104Y929098D01*
X306207D01*
X306718Y928995D01*
D02*
G37*
G36*
X457005Y928893D02*
X457056Y928330D01*
X456545Y927614D01*
X456954Y926693D01*
X456698Y926335D01*
X456289Y926233D01*
X455368Y926335D01*
X455061Y926233D01*
X454141Y926335D01*
X453629Y926847D01*
X453220Y926745D01*
X453015Y926540D01*
X452606Y926438D01*
X452197Y926540D01*
X452043Y926693D01*
X452146Y927307D01*
X452248Y927614D01*
X452146Y927921D01*
X451327Y928126D01*
X450662Y928382D01*
X449946Y928279D01*
X449230Y927870D01*
X449076Y927717D01*
X449128Y926745D01*
X448923Y926438D01*
X447798Y926540D01*
X447644Y927000D01*
X447746Y927410D01*
Y927512D01*
X447695Y928586D01*
X447900Y928791D01*
X449025Y928893D01*
X449332Y928995D01*
X449741Y929098D01*
X450151Y928995D01*
X451839Y929046D01*
X452350Y928739D01*
X452453Y928535D01*
X452708Y928279D01*
X453322Y928382D01*
X453629Y928688D01*
X454345Y928995D01*
X455061Y928893D01*
X455471Y928688D01*
X455675Y928893D01*
X455880Y928995D01*
X456493Y929200D01*
X457005Y928893D01*
D02*
G37*
G36*
X406466Y928995D02*
X406978Y929098D01*
X407080D01*
X407592Y928995D01*
X407745Y928842D01*
X407643Y928535D01*
X407489Y928382D01*
X406415Y928433D01*
X406057Y928177D01*
X405545Y927870D01*
X405136Y927972D01*
X404983Y928433D01*
X405085Y928842D01*
X405341Y929098D01*
X405750Y929200D01*
X406466Y928995D01*
D02*
G37*
G36*
X331374D02*
X332448Y929046D01*
X332806Y928893D01*
X332857Y928637D01*
X332704Y928484D01*
X332295Y928382D01*
X331169Y928484D01*
X331067D01*
X330760Y928382D01*
X330504Y928126D01*
X330402Y927717D01*
X330504Y927307D01*
X330760Y927051D01*
X331476Y926949D01*
X331783Y927051D01*
X332909Y926949D01*
X333062Y926796D01*
X332960Y926386D01*
X332806Y926233D01*
X332090Y926131D01*
X330044Y926233D01*
X329532Y926540D01*
X329379Y926693D01*
X329174Y927205D01*
X329277Y928637D01*
X329635Y928995D01*
X330351Y929098D01*
X331374Y928995D01*
D02*
G37*
G36*
X311117D02*
X311322Y928893D01*
X311475Y928739D01*
X311322Y928484D01*
X310606Y928382D01*
X310197Y928484D01*
X309225Y928330D01*
X308918Y928126D01*
X308815Y927717D01*
X308918Y927307D01*
X309174Y927051D01*
X310043Y927000D01*
X310657Y927103D01*
X310913Y927154D01*
X311424Y926847D01*
X311475Y926386D01*
X311322Y926233D01*
X310913Y926131D01*
X309890Y926233D01*
X309583Y926131D01*
X308764Y926233D01*
X308662Y926335D01*
X308560D01*
X307792Y926898D01*
X307588Y927717D01*
X307690Y928535D01*
X307844Y928688D01*
X308355Y928893D01*
X309174Y929098D01*
X311117Y928995D01*
D02*
G37*
G36*
X370352D02*
X370506Y928842D01*
X370710Y928330D01*
X370659Y928074D01*
X370250Y927972D01*
X369125D01*
X369073Y928023D01*
X368767Y928330D01*
X368715Y928586D01*
X368920Y928893D01*
X369636Y929098D01*
X370352Y928995D01*
D02*
G37*
G36*
X461711Y929098D02*
X461865Y928944D01*
X461967Y928535D01*
X461865Y928126D01*
X461660Y927921D01*
X461558Y927717D01*
X461455Y927410D01*
X461762Y926796D01*
Y926693D01*
X461660Y926489D01*
X461404Y926233D01*
X460023Y926284D01*
X459154Y926233D01*
X458847Y926335D01*
X458182Y926693D01*
X458079Y927103D01*
X457977Y928535D01*
X458335Y928893D01*
X458744Y928995D01*
X459563Y928893D01*
X459818Y928637D01*
X459716Y928330D01*
X459409Y927819D01*
X459512Y927512D01*
X459665Y927358D01*
X460074Y927256D01*
X460586Y927358D01*
X460841Y927512D01*
X460739Y927921D01*
X460535Y928126D01*
X460330Y928535D01*
X460790Y929098D01*
X461200Y929200D01*
X461711Y929098D01*
D02*
G37*
G36*
X363498D02*
X363651Y928944D01*
X363754Y928535D01*
X363651Y928126D01*
X363344Y927819D01*
X363242Y927410D01*
X363549Y926693D01*
X363447Y926489D01*
X363191Y926233D01*
X361810Y926284D01*
X360838Y926233D01*
X360122Y926642D01*
X359968Y926796D01*
X359866Y927512D01*
X359968Y928739D01*
X360122Y928893D01*
X360838Y928995D01*
X361452Y928893D01*
X361707Y928637D01*
X361605Y928433D01*
X361196Y927819D01*
X361298Y927512D01*
X361400Y927410D01*
X361452Y927358D01*
X361861Y927256D01*
X362373Y927358D01*
X362628Y927512D01*
X362526Y927921D01*
X362321Y928126D01*
X362117Y928535D01*
X362577Y929098D01*
X362986Y929200D01*
X363498Y929098D01*
D02*
G37*
G36*
X340121Y928842D02*
X340223Y928433D01*
X340172Y927358D01*
X340223Y926796D01*
X339916Y926284D01*
X339456Y926131D01*
X338842Y926233D01*
X338535Y926335D01*
X336694Y926233D01*
X336336Y926591D01*
X336438Y927307D01*
X336745Y928023D01*
X336847Y928739D01*
X337308Y928893D01*
X337921Y928791D01*
X338075Y928637D01*
X337973Y928330D01*
X337563Y927921D01*
X337666Y927512D01*
X338228Y927256D01*
X338740Y927358D01*
X338893Y927512D01*
X338791Y928126D01*
X338689Y928330D01*
X338638Y928382D01*
X338586Y928637D01*
X339047Y929098D01*
X339661Y929200D01*
X340121Y928842D01*
D02*
G37*
G36*
X474192Y928995D02*
X474346Y928842D01*
X474244Y928433D01*
X473579Y927051D01*
X472965Y927154D01*
X472811Y927307D01*
X472760Y927358D01*
X472607Y927921D01*
X472709Y928637D01*
X473067Y929098D01*
X474192Y928995D01*
D02*
G37*
G36*
X412758Y928944D02*
X412962Y928739D01*
X412860Y927921D01*
X412758Y927614D01*
X412656Y926386D01*
X412502Y926233D01*
X412400D01*
X412349Y926182D01*
X411786Y926131D01*
X411274Y926335D01*
X410865Y926438D01*
X409740Y926131D01*
X409024Y926233D01*
X408870Y926386D01*
X408768Y926796D01*
X408870Y927205D01*
X409177Y927921D01*
X409280Y928739D01*
X409433Y928893D01*
X410354Y928791D01*
X410507Y928637D01*
X410405Y928228D01*
X410200Y928023D01*
X410303Y927512D01*
X410763Y927051D01*
X411172Y927154D01*
X411428Y927410D01*
X411530Y927819D01*
X411326Y928535D01*
X411428Y928842D01*
X411581Y928995D01*
X411991Y929098D01*
X412246Y929149D01*
X412758Y928944D01*
D02*
G37*
G36*
X397207Y928739D02*
X397310Y928126D01*
X397207Y927819D01*
X397003Y926591D01*
X396849Y926335D01*
X396133Y926131D01*
X395724Y926233D01*
X393934Y926182D01*
X393525Y926284D01*
X393218Y926591D01*
X393013Y927410D01*
X393115Y928842D01*
X393371Y929098D01*
X394087Y928995D01*
X394241Y928535D01*
X394189Y927768D01*
X394394Y927256D01*
X395110Y926949D01*
X395622Y927051D01*
X395980Y927410D01*
X396082Y927819D01*
Y928126D01*
Y928228D01*
X395980Y928535D01*
X396287Y929046D01*
X396849Y929098D01*
X397207Y928739D01*
D02*
G37*
G36*
X379151Y929098D02*
X379406Y928842D01*
X379509Y928433D01*
X379406Y926796D01*
X379304Y926386D01*
X379151Y926233D01*
X378741Y926131D01*
X376797Y926233D01*
X375774Y926335D01*
X375519Y926591D01*
X375416Y927000D01*
X375365Y928484D01*
X375519Y928842D01*
X375774Y929098D01*
X377002Y928995D01*
X377258Y928739D01*
X376746Y928228D01*
X376542Y927717D01*
X376644Y927307D01*
X377002Y926949D01*
X377565Y926898D01*
X377974Y927000D01*
X378128Y927154D01*
X378332Y927256D01*
X378383Y927307D01*
X378434Y927358D01*
X378588Y927717D01*
X378128Y928279D01*
X377667Y928739D01*
X377923Y928995D01*
X378639Y929200D01*
X379151Y929098D01*
D02*
G37*
G36*
X421454Y929046D02*
X421659Y928842D01*
X421761Y928433D01*
X421659Y926693D01*
X421301Y926233D01*
X420584Y926131D01*
X420175Y926233D01*
X418282Y926182D01*
X417924Y926335D01*
X417771Y926796D01*
X417669Y927512D01*
X417771Y928842D01*
X417976Y929046D01*
X418027Y929098D01*
X418743Y929200D01*
X419408Y928842D01*
X419305Y928535D01*
X418896Y928126D01*
X418692Y927614D01*
X419152Y927051D01*
X419664Y926847D01*
X420328Y927103D01*
X420738Y927512D01*
X420635Y927921D01*
X420431Y928126D01*
X420328Y928330D01*
X419919Y928739D01*
X419971Y928893D01*
X420482Y929098D01*
X420891Y929200D01*
X421454Y929046D01*
D02*
G37*
G36*
X437925Y927103D02*
X437976Y926745D01*
X437874Y926540D01*
X437567D01*
X437414Y926693D01*
X437516Y927205D01*
X437669Y927256D01*
X437925Y927103D01*
D02*
G37*
G36*
X356899Y927717D02*
X357104Y927205D01*
X357001Y926591D01*
X356541Y926438D01*
X356234Y926540D01*
X356081Y927000D01*
X356183Y927512D01*
X356234Y927563D01*
X356490Y927921D01*
X356643Y927972D01*
X356899Y927717D01*
D02*
G37*
G36*
X302524Y929916D02*
X302677Y929763D01*
X302882Y928330D01*
X303086Y927819D01*
Y927614D01*
Y927512D01*
X302933Y926949D01*
X302677Y926591D01*
X302524Y926438D01*
X302012Y926540D01*
X301859Y926693D01*
X301961Y927717D01*
X302063Y928023D01*
X301961Y928637D01*
X301859Y928944D01*
X301756Y929353D01*
X301859Y929763D01*
X302115Y930018D01*
X302524Y929916D01*
D02*
G37*
G36*
X476648Y928893D02*
X476801Y928739D01*
X476750Y926847D01*
X476801Y925773D01*
X476545Y925312D01*
X476136Y925210D01*
X475215Y925312D01*
X475011Y925517D01*
X474090Y925415D01*
X473579Y925210D01*
X473067Y925312D01*
X472914Y925773D01*
X473374Y926335D01*
X473885Y926540D01*
X474704Y926438D01*
X475011Y926335D01*
X475574Y926796D01*
X475778Y927410D01*
X475369Y928126D01*
X475164Y928330D01*
X475062Y928739D01*
X475164Y928944D01*
X475369Y929046D01*
X475420Y929098D01*
X476136Y929200D01*
X476648Y928893D01*
D02*
G37*
G36*
X328151Y928842D02*
X328254Y928433D01*
X328202Y928382D01*
X328151Y927410D01*
X328254Y927103D01*
X328151Y926489D01*
X327691Y926335D01*
X327282Y926438D01*
X327077Y926642D01*
X326924Y926693D01*
X326821Y927103D01*
X326924Y927307D01*
X327230Y928023D01*
X327333Y928433D01*
X327640Y928944D01*
X327998Y928995D01*
X328151Y928842D01*
D02*
G37*
G36*
X469077Y929098D02*
X469435Y928842D01*
X469333Y928433D01*
X469026Y928126D01*
X468924Y927921D01*
X468719Y927717D01*
Y927205D01*
Y927103D01*
X468821Y926796D01*
X468719Y926386D01*
X468259Y926233D01*
X467952Y926335D01*
X467696Y926591D01*
X467747Y927870D01*
X467594Y928433D01*
X467850Y928995D01*
X468361Y929200D01*
X469077Y929098D01*
D02*
G37*
G36*
X426416Y928995D02*
X426569Y928842D01*
X426671Y928637D01*
Y928535D01*
X426723Y926642D01*
X426467Y926284D01*
X425802Y926233D01*
X425546Y926489D01*
X425597Y927665D01*
X425188Y928279D01*
X424932Y928535D01*
X424983Y928893D01*
X425188Y928995D01*
X425495Y929098D01*
X425904Y929200D01*
X426416Y928995D01*
D02*
G37*
G36*
X401862D02*
X402016Y928842D01*
X402118Y928433D01*
X402016Y927717D01*
Y927614D01*
X402118Y927205D01*
X402016Y926489D01*
X401760Y926233D01*
X401249Y926335D01*
X401095Y926489D01*
X400993Y926898D01*
X401095Y927307D01*
X400993Y927819D01*
X400788Y928023D01*
X400686Y928228D01*
X400379Y928535D01*
X400430Y928893D01*
X400635Y928995D01*
X400942Y929098D01*
X401351Y929200D01*
X401862Y928995D01*
D02*
G37*
G36*
X344981Y928893D02*
X345032Y927921D01*
X344929Y927614D01*
X345134Y926796D01*
X344878Y926335D01*
X344469Y926233D01*
X344111Y926489D01*
X344162Y927563D01*
X343804Y928126D01*
X343651Y928279D01*
X343599Y928330D01*
X343395Y928739D01*
X343753Y929098D01*
X344469Y929200D01*
X344981Y928893D01*
D02*
G37*
G36*
X466622Y929098D02*
X466878Y928842D01*
X466980Y928126D01*
X467031Y926745D01*
X466878Y926386D01*
X466724Y926233D01*
X466366Y926182D01*
X466059Y926284D01*
X466008Y926335D01*
X465854Y926489D01*
X465752Y926898D01*
X465854Y927614D01*
X465701Y928177D01*
X465650Y928842D01*
X466008Y929200D01*
X466622Y929098D01*
D02*
G37*
G36*
X471635Y928893D02*
X471788Y928433D01*
X471839Y926642D01*
X471533Y926233D01*
X471123Y926131D01*
X470765Y926386D01*
X470663Y926796D01*
X470714Y927665D01*
X470202Y928484D01*
X470151Y928842D01*
X470305Y928995D01*
X470714Y929098D01*
X470765Y929149D01*
X471123Y929200D01*
X471635Y928893D01*
D02*
G37*
G36*
X464371Y928995D02*
X464627Y928739D01*
X464524Y928535D01*
X464013Y927819D01*
X463911Y926386D01*
X463757Y926233D01*
X463348Y926131D01*
X462888Y926386D01*
X462785Y926796D01*
Y927614D01*
Y927717D01*
X462888Y928433D01*
X462990Y928739D01*
X463348Y929098D01*
X464371Y928995D01*
D02*
G37*
G36*
X438386Y929098D02*
X439102Y928893D01*
X440074Y929046D01*
X440534Y929098D01*
X441250Y928688D01*
X441506Y928023D01*
X441404Y926591D01*
X441045Y926233D01*
X440636Y926131D01*
X440278Y926386D01*
X440176Y926796D01*
X440278Y927717D01*
X440022Y928074D01*
X439971Y928126D01*
X439920Y928279D01*
X439715Y928382D01*
X439204Y928586D01*
X438232Y927921D01*
X437669Y927665D01*
X437465Y927768D01*
X437209Y928023D01*
X437107Y928433D01*
X437414Y928944D01*
X438078Y929200D01*
X438386Y929098D01*
D02*
G37*
G36*
X423858D02*
X424319Y928739D01*
X424216Y928535D01*
X423756Y927972D01*
X423602Y927512D01*
X423705Y926796D01*
Y926489D01*
X423653Y926438D01*
X423346Y926131D01*
X422835Y926233D01*
X422579Y926489D01*
X422477Y926898D01*
X422579Y928739D01*
X423040Y929200D01*
X423858Y929098D01*
D02*
G37*
G36*
X416492Y929200D02*
X416646Y929046D01*
X416748Y928637D01*
X416850Y927921D01*
X416748Y926386D01*
X416594Y926233D01*
X416185Y926131D01*
X415827Y926386D01*
X415725Y927000D01*
X415827Y927307D01*
X415725Y928228D01*
X415622Y928535D01*
X415674Y928791D01*
X415725Y928842D01*
X415827Y929046D01*
X416083Y929302D01*
X416492Y929200D01*
D02*
G37*
G36*
X414651Y930018D02*
X414804Y929865D01*
X414906Y929456D01*
X415009Y928739D01*
X414906Y928433D01*
X414804Y927717D01*
X414702Y926386D01*
X414446Y926131D01*
X414139D01*
X413883Y926386D01*
X413781Y926796D01*
X413679Y928637D01*
X413576Y928944D01*
X413679Y929353D01*
X413832Y929916D01*
X414037Y930121D01*
X414651Y930018D01*
D02*
G37*
G36*
X406364Y927051D02*
X406671Y926949D01*
X406978Y927051D01*
X407694Y926949D01*
X407847Y926796D01*
Y926693D01*
X407745Y926386D01*
X407592Y926233D01*
X407182Y926131D01*
X406261Y926233D01*
X405955Y926131D01*
X405238Y926233D01*
X405085Y926386D01*
X404983Y926796D01*
X405085Y927307D01*
X405238Y927461D01*
X405494Y927512D01*
X406364Y927051D01*
D02*
G37*
G36*
X403653Y929353D02*
X403704Y929302D01*
X403960Y929046D01*
X404164Y928228D01*
X404062Y926591D01*
X403806Y926233D01*
X403397Y926131D01*
X402886Y926438D01*
X402783Y926847D01*
X402732Y926898D01*
X402834Y927205D01*
X402937Y927921D01*
X402886Y928586D01*
X402988Y928995D01*
X403243Y929353D01*
X403602Y929405D01*
X403653Y929353D01*
D02*
G37*
G36*
X399305Y929098D02*
X399765Y928739D01*
X399663Y928535D01*
X399151Y927819D01*
Y927410D01*
Y927307D01*
X399049Y926386D01*
X398895Y926233D01*
X398486Y926131D01*
X398026Y926489D01*
X397924Y927307D01*
X398026Y927614D01*
X398128Y928842D01*
X398384Y929098D01*
X398793Y929200D01*
X399305Y929098D01*
D02*
G37*
G36*
X372398Y927256D02*
X372705Y927154D01*
X372757Y927103D01*
X374189Y927000D01*
X374393Y926796D01*
X374291Y926284D01*
X373831Y926131D01*
X372910Y926233D01*
X372603Y926131D01*
X371785Y926233D01*
X371529Y926489D01*
X371324Y927205D01*
X371478Y927358D01*
X372398Y927256D01*
D02*
G37*
G36*
X367795Y929098D02*
X368153Y928739D01*
X368204Y928484D01*
X367846Y927614D01*
X368204Y927256D01*
X369329Y927358D01*
X370045Y926949D01*
X370199Y926796D01*
X370097Y926591D01*
X369841Y926335D01*
X368818D01*
X367795Y926233D01*
X367488Y926131D01*
X366976Y926233D01*
X366720Y926489D01*
X366618Y927103D01*
X366720Y927410D01*
X366618Y928637D01*
X366976Y929098D01*
X367385Y929200D01*
X367795Y929098D01*
D02*
G37*
G36*
X365595Y930070D02*
X365800Y929353D01*
X365748Y928382D01*
X365800Y926796D01*
X365493Y926284D01*
X365032Y926131D01*
X364674Y926386D01*
X364572Y926796D01*
X364674Y927921D01*
Y928023D01*
X364572Y929046D01*
X364674Y929865D01*
X364828Y930121D01*
X365237Y930223D01*
X365595Y930070D01*
D02*
G37*
G36*
X342321Y929098D02*
X342781Y928739D01*
X342474Y928228D01*
X342423Y928177D01*
X342372Y928126D01*
X342167Y927614D01*
X342065Y926386D01*
X341911Y926233D01*
X341502Y926131D01*
X341042Y926489D01*
X340939Y926898D01*
X341042Y928637D01*
X341400Y929098D01*
X341809Y929200D01*
X342321Y929098D01*
D02*
G37*
G36*
X316130Y928995D02*
X316386Y928739D01*
X315926Y928177D01*
X315670Y927614D01*
Y927410D01*
Y927307D01*
X315568Y926386D01*
X315312Y926131D01*
X314903Y926233D01*
X314647Y926489D01*
X314596Y927051D01*
X314647Y927819D01*
X314545Y928126D01*
X314647Y928739D01*
X314903Y928995D01*
X315312Y929098D01*
X316130Y928995D01*
D02*
G37*
G36*
X313624Y929865D02*
X313726Y929456D01*
Y929251D01*
Y929149D01*
X313624Y926898D01*
X313521Y926386D01*
X313266Y926131D01*
X312857Y926233D01*
X312601Y926489D01*
X312498Y927512D01*
X312396Y929353D01*
X312805Y930070D01*
X313368Y930121D01*
X313624Y929865D01*
D02*
G37*
%LPC*%
G36*
X348050Y928586D02*
X347538Y928484D01*
X347282Y928228D01*
X347078Y927717D01*
X347180Y927307D01*
X347436Y927051D01*
X347845Y926949D01*
X348561Y927051D01*
X349226Y927512D01*
X349277Y927563D01*
X349431Y927614D01*
X349380Y927972D01*
X349175Y928074D01*
X348050Y928586D01*
D02*
G37*
G36*
X305388Y928279D02*
X304979Y928177D01*
X304723Y927921D01*
X304826Y927512D01*
X305081Y927358D01*
X305184D01*
X305798Y927461D01*
X305849Y927819D01*
X305388Y928279D01*
D02*
G37*
G36*
X455471Y928382D02*
X454959Y928074D01*
X454703Y927819D01*
X454754Y927563D01*
X455266Y927358D01*
X455829Y927410D01*
X455880Y927461D01*
X456033Y927614D01*
X455931Y927819D01*
X455471Y928382D01*
D02*
G37*
%LPD*%
D12*
X640334Y632714D02*
Y670306D01*
X716026Y436118D02*
Y594614D01*
Y387350D02*
Y436118D01*
X586740Y467360D02*
Y544510D01*
Y400558D02*
Y467360D01*
X589120Y469740D02*
X599350Y479970D01*
X586740Y544510D02*
Y604520D01*
X656590Y330708D02*
X702718D01*
X721260Y349250D01*
X589120Y469740D02*
X618170Y440690D01*
X586740Y467360D02*
X589120Y469740D01*
X586740Y400558D02*
X656590Y330708D01*
X599350Y479970D02*
X706120D01*
X502600Y628650D02*
X586740Y544510D01*
X609600Y661670D02*
Y810260D01*
X627380Y828040D01*
X649478D01*
X696214Y781304D01*
Y639064D02*
Y781304D01*
Y639064D02*
X770890Y564388D01*
Y481240D02*
Y564388D01*
X827960Y322580D02*
X853360Y347980D01*
X780796Y322580D02*
X827960D01*
X716026Y387350D02*
X780796Y322580D01*
X640334Y670306D02*
X716026Y594614D01*
X598170Y440690D02*
X607822Y431038D01*
X710946D01*
X716026Y436118D01*
X640334Y670306D02*
Y810604D01*
X612140Y604520D02*
X640334Y632714D01*
X563880Y707390D02*
Y732790D01*
Y707390D02*
X596900Y674370D01*
X584200Y632460D02*
Y661670D01*
Y632460D02*
X612140Y604520D01*
X302260Y524420D02*
X326480Y548640D01*
X483870D01*
X835660Y717550D02*
X908050D01*
X922020Y731520D01*
Y970280D01*
X999744D01*
X1014984Y955040D01*
Y575564D02*
Y955040D01*
X990600Y551180D02*
X1014984Y575564D01*
X990600Y551180D02*
X1007110Y534670D01*
Y410840D02*
Y534670D01*
X802640Y327660D02*
X822960Y347980D01*
X790702Y327660D02*
X802640D01*
X778764Y339598D02*
X790702Y327660D01*
X778764Y339598D02*
Y397002D01*
X780796Y399034D01*
Y624586D01*
X760984Y644398D02*
X780796Y624586D01*
X760984Y644398D02*
Y872834D01*
X775970Y887820D01*
X706120Y648970D02*
X710692Y653542D01*
Y715518D01*
X707390Y718820D02*
X710692Y715518D01*
X521970Y734060D02*
X563880Y775970D01*
Y873790D01*
X898398Y780862D02*
X908050Y771210D01*
X898398Y780862D02*
Y839470D01*
X900684Y841756D01*
Y912616D01*
X877020Y936280D02*
X900684Y912616D01*
X521970Y875060D02*
X551658Y904748D01*
X775208D01*
X785876Y894080D01*
Y857758D02*
Y894080D01*
X766064Y837946D02*
X785876Y857758D01*
X766064Y655066D02*
Y837946D01*
Y655066D02*
X770890Y650240D01*
X792560Y628570D01*
Y347980D02*
Y628570D01*
X972820Y405130D02*
X1007110Y370840D01*
X972820Y405130D02*
Y773430D01*
X348234Y578866D02*
X365760Y561340D01*
X348234Y578866D02*
Y766394D01*
X357810Y775970D01*
X482600Y628650D02*
X518510Y592740D01*
Y363890D02*
Y592740D01*
X500060Y345440D02*
X518510Y363890D01*
X836930Y533310D02*
X891540Y478700D01*
X836930Y533310D02*
Y650330D01*
X775970Y711290D02*
X836930Y650330D01*
X775970Y711290D02*
Y718820D01*
X412750Y562610D02*
X417160Y558200D01*
X493430D01*
Y358810D02*
Y558200D01*
X480060Y345440D02*
X493430Y358810D01*
X520060Y335920D02*
Y345440D01*
Y335920D02*
X538480Y317500D01*
X883920D01*
X901446Y335026D01*
Y637794D01*
X891540Y647700D02*
X901446Y637794D01*
X269240Y1037590D02*
X269240Y264160D01*
X270510Y262890D01*
X1076960D01*
X1080770Y266700D01*
Y1033780D01*
X1076960Y1037590D02*
X1080770Y1033780D01*
X269240Y1037590D02*
X1076960Y1037590D01*
X570545Y350357D02*
X563880D01*
Y345358D01*
X567212Y347024D01*
X568878D01*
X570545Y345358D01*
Y342026D01*
X568878Y340360D01*
X565546D01*
X563880Y342026D01*
X573877Y348691D02*
X575543Y350357D01*
X578875D01*
X580541Y348691D01*
Y342026D01*
X578875Y340360D01*
X575543D01*
X573877Y342026D01*
Y348691D01*
X433385Y339090D02*
X426720D01*
X433385Y345755D01*
Y347421D01*
X431718Y349087D01*
X428386D01*
X426720Y347421D01*
X436717D02*
X438383Y349087D01*
X441715D01*
X443381Y347421D01*
Y340756D01*
X441715Y339090D01*
X438383D01*
X436717Y340756D01*
Y347421D01*
X1071876Y434343D02*
X1074415Y436883D01*
Y441961D01*
X1071876Y444500D01*
X1061719D01*
X1059180Y441961D01*
Y436883D01*
X1061719Y434343D01*
X1066797D01*
Y439422D01*
X1059180Y429265D02*
X1074415D01*
X1059180Y419108D01*
X1074415D01*
Y414030D02*
X1059180D01*
Y406412D01*
X1061719Y403873D01*
X1071876D01*
X1074415Y406412D01*
Y414030D01*
X1073145Y621030D02*
X1062988D01*
X1057910Y615952D01*
X1062988Y610873D01*
X1073145D01*
X1068067Y595638D02*
Y603256D01*
X1065527Y605795D01*
X1060449D01*
X1057910Y603256D01*
Y595638D01*
X1068067Y580403D02*
Y588021D01*
X1065527Y590560D01*
X1060449D01*
X1057910Y588021D01*
Y580403D01*
X1073145Y518160D02*
X1062988D01*
X1057910Y513082D01*
X1062988Y508003D01*
X1073145D01*
X1057910Y495307D02*
Y500386D01*
X1060449Y502925D01*
X1065527D01*
X1068067Y500386D01*
Y495307D01*
X1065527Y492768D01*
X1062988D01*
Y502925D01*
X1057910Y480072D02*
Y485151D01*
X1060449Y487690D01*
X1065527D01*
X1068067Y485151D01*
Y480072D01*
X1065527Y477533D01*
X1062988D01*
Y487690D01*
X1052830Y565152D02*
Y562612D01*
X1055369Y560073D01*
X1068065D01*
Y567691D01*
X1065526Y570230D01*
X1060447D01*
X1057908Y567691D01*
Y560073D01*
Y554995D02*
X1068065D01*
Y547377D01*
X1065526Y544838D01*
X1057908D01*
X1073143Y529603D02*
X1057908D01*
Y537221D01*
X1060447Y539760D01*
X1065526D01*
X1068065Y537221D01*
Y529603D01*
D33*
X891540Y647700D02*
D03*
Y478700D02*
D03*
X302260Y524420D02*
D03*
Y693420D02*
D03*
X365760Y392340D02*
D03*
Y561340D02*
D03*
X412750Y393610D02*
D03*
Y562610D02*
D03*
X707390Y887820D02*
D03*
Y718820D02*
D03*
X775970Y887820D02*
D03*
Y718820D02*
D03*
X835660Y886550D02*
D03*
Y717550D02*
D03*
X770890Y650240D02*
D03*
Y481240D02*
D03*
X706120Y648970D02*
D03*
Y479970D02*
D03*
X836930Y650330D02*
D03*
Y481330D02*
D03*
D34*
X908050Y771210D02*
D03*
X972820Y773430D02*
D03*
D35*
X908050Y791210D02*
D03*
X972820Y793430D02*
D03*
X502600Y628650D02*
D03*
X503870Y548640D02*
D03*
X618170Y440690D02*
D03*
D36*
X584200Y661670D02*
D03*
X596900Y674370D02*
D03*
X609600Y661670D02*
D03*
X612140Y604520D02*
D03*
X599440Y591820D02*
D03*
X586740Y604520D02*
D03*
D37*
X520060Y345440D02*
D03*
X500060D02*
D03*
X480060D02*
D03*
X990600Y571180D02*
D03*
Y551180D02*
D03*
Y531180D02*
D03*
D38*
X540560Y330440D02*
D03*
X1005600Y591680D02*
D03*
D39*
X437210Y801370D02*
D03*
Y775970D02*
D03*
Y750570D02*
D03*
Y725170D02*
D03*
X357810D02*
D03*
Y750570D02*
D03*
Y775970D02*
D03*
D40*
Y801370D02*
D03*
D41*
X300990Y285750D02*
D03*
X1049020D02*
D03*
X300990Y1003300D02*
D03*
X1049020D02*
D03*
D42*
X482600Y628650D02*
D03*
X483870Y548640D02*
D03*
X598170Y440690D02*
D03*
D43*
X1007110Y370840D02*
D03*
Y410840D02*
D03*
D44*
X962110Y354340D02*
D03*
D45*
X877020Y936280D02*
D03*
X882020Y860280D02*
D03*
X947020Y906280D02*
D03*
X974020Y892280D02*
D03*
X922020Y970280D02*
D03*
D46*
X670560Y349250D02*
D03*
X695910D02*
D03*
D47*
X721260D02*
D03*
D48*
X792560Y347980D02*
D03*
X822960D02*
D03*
D49*
X853360D02*
D03*
D50*
X521970Y734060D02*
D03*
X563880Y732790D02*
D03*
D51*
X521970Y875060D02*
D03*
X563880Y873790D02*
D03*
D52*
X640334Y810604D02*
D03*
D53*
X894563Y286110D02*
X895289Y283933D01*
Y288287D01*
X894563Y286110D01*
X893112Y287561D01*
X890935Y288287D01*
X889484D01*
X887308Y287561D01*
X885856Y286110D01*
X885131Y284659D01*
X884405Y282482D01*
Y278855D01*
X885131Y276678D01*
X885856Y275227D01*
X887308Y273776D01*
X889484Y273050D01*
X890935D01*
X893112Y273776D01*
X894563Y275227D01*
X895289Y276678D01*
X889484Y288287D02*
X888033Y287561D01*
X886582Y286110D01*
X885856Y284659D01*
X885131Y282482D01*
Y278855D01*
X885856Y276678D01*
X886582Y275227D01*
X888033Y273776D01*
X889484Y273050D01*
X902544Y288287D02*
X900368Y287561D01*
X898916Y286110D01*
X898191Y284659D01*
X897465Y281757D01*
Y279580D01*
X898191Y276678D01*
X898916Y275227D01*
X900368Y273776D01*
X902544Y273050D01*
X903995D01*
X906172Y273776D01*
X907623Y275227D01*
X908349Y276678D01*
X909074Y279580D01*
Y281757D01*
X908349Y284659D01*
X907623Y286110D01*
X906172Y287561D01*
X903995Y288287D01*
X902544D01*
X901093Y287561D01*
X899642Y286110D01*
X898916Y284659D01*
X898191Y281757D01*
Y279580D01*
X898916Y276678D01*
X899642Y275227D01*
X901093Y273776D01*
X902544Y273050D01*
X903995D02*
X905446Y273776D01*
X906898Y275227D01*
X907623Y276678D01*
X908349Y279580D01*
Y281757D01*
X907623Y284659D01*
X906898Y286110D01*
X905446Y287561D01*
X903995Y288287D01*
X913355D02*
Y273050D01*
X914081Y288287D02*
Y273050D01*
X911178Y288287D02*
X919885D01*
X922062Y287561D01*
X922787Y286836D01*
X923513Y285385D01*
Y283933D01*
X922787Y282482D01*
X922062Y281757D01*
X919885Y281031D01*
X914081D01*
X919885Y288287D02*
X921336Y287561D01*
X922062Y286836D01*
X922787Y285385D01*
Y283933D01*
X922062Y282482D01*
X921336Y281757D01*
X919885Y281031D01*
X911178Y273050D02*
X916257D01*
X917708Y281031D02*
X919159Y280306D01*
X919885Y279580D01*
X922062Y274501D01*
X922787Y273776D01*
X923513D01*
X924238Y274501D01*
X919159Y280306D02*
X919885Y278855D01*
X921336Y273776D01*
X922062Y273050D01*
X923513D01*
X924238Y274501D01*
Y275227D01*
X928374Y288287D02*
Y273050D01*
X929100Y288287D02*
Y273050D01*
X933453Y283933D02*
Y278129D01*
X926197Y288287D02*
X937806D01*
Y283933D01*
X937081Y288287D01*
X929100Y281031D02*
X933453D01*
X926197Y273050D02*
X937806D01*
Y277403D01*
X937081Y273050D01*
X955800Y288287D02*
Y273050D01*
X956526Y288287D02*
Y273050D01*
X960879Y283933D02*
Y278129D01*
X953624Y288287D02*
X965232D01*
Y283933D01*
X964507Y288287D01*
X956526Y281031D02*
X960879D01*
X953624Y273050D02*
X958702D01*
X972415Y288287D02*
X970239Y287561D01*
X968788Y286110D01*
X968062Y284659D01*
X967337Y281757D01*
Y279580D01*
X968062Y276678D01*
X968788Y275227D01*
X970239Y273776D01*
X972415Y273050D01*
X973867D01*
X976043Y273776D01*
X977494Y275227D01*
X978220Y276678D01*
X978945Y279580D01*
Y281757D01*
X978220Y284659D01*
X977494Y286110D01*
X976043Y287561D01*
X973867Y288287D01*
X972415D01*
X970964Y287561D01*
X969513Y286110D01*
X968788Y284659D01*
X968062Y281757D01*
Y279580D01*
X968788Y276678D01*
X969513Y275227D01*
X970964Y273776D01*
X972415Y273050D01*
X973867D02*
X975318Y273776D01*
X976769Y275227D01*
X977494Y276678D01*
X978220Y279580D01*
Y281757D01*
X977494Y284659D01*
X976769Y286110D01*
X975318Y287561D01*
X973867Y288287D01*
X983226D02*
Y277403D01*
X983952Y275227D01*
X985403Y273776D01*
X987580Y273050D01*
X989031D01*
X991208Y273776D01*
X992659Y275227D01*
X993384Y277403D01*
Y288287D01*
X983952D02*
Y277403D01*
X984678Y275227D01*
X986129Y273776D01*
X987580Y273050D01*
X981050Y288287D02*
X986129D01*
X991208D02*
X995561D01*
X999551D02*
Y273050D01*
X1000277Y288287D02*
Y273050D01*
X997375Y288287D02*
X1006081D01*
X1008258Y287561D01*
X1008984Y286836D01*
X1009709Y285385D01*
Y283933D01*
X1008984Y282482D01*
X1008258Y281757D01*
X1006081Y281031D01*
X1000277D01*
X1006081Y288287D02*
X1007533Y287561D01*
X1008258Y286836D01*
X1008984Y285385D01*
Y283933D01*
X1008258Y282482D01*
X1007533Y281757D01*
X1006081Y281031D01*
X997375Y273050D02*
X1002454D01*
X1003905Y281031D02*
X1005356Y280306D01*
X1006081Y279580D01*
X1008258Y274501D01*
X1008984Y273776D01*
X1009709D01*
X1010435Y274501D01*
X1005356Y280306D02*
X1006081Y278855D01*
X1007533Y273776D01*
X1008258Y273050D01*
X1009709D01*
X1010435Y274501D01*
Y275227D01*
M02*
