G04*
G04 #@! TF.GenerationSoftware,Altium Limited,Altium Designer,23.9.2 (47)*
G04*
G04 Layer_Color=65535*
%FSLAX44Y44*%
%MOMM*%
G71*
G04*
G04 #@! TF.SameCoordinates,F81C6849-98B2-4F71-9394-E41489A2B151*
G04*
G04*
G04 #@! TF.FilePolarity,Positive*
G04*
G01*
G75*
%ADD10C,0.2000*%
%ADD11C,0.1000*%
%ADD12C,0.2540*%
D10*
X934300Y781210D02*
G03*
X934300Y781210I-26250J0D01*
G01*
X999070Y783430D02*
G03*
X999070Y783430I-26250J0D01*
G01*
X518850Y628650D02*
G03*
X518850Y628650I-26250J0D01*
G01*
X520120Y548640D02*
G03*
X520120Y548640I-26250J0D01*
G01*
X1007110Y342840D02*
G03*
X1007110Y341840I0J-500D01*
G01*
D02*
G03*
X1007110Y342840I0J500D01*
G01*
D02*
G03*
X1007110Y341840I0J-500D01*
G01*
X634420Y440690D02*
G03*
X634420Y440690I-26250J0D01*
G01*
X891540Y598700D02*
Y638200D01*
Y488200D02*
Y527700D01*
X879290D02*
X903790D01*
Y598700D01*
X879290D02*
X903790D01*
X879290Y527700D02*
Y598700D01*
X542060Y342920D02*
Y390440D01*
Y342920D02*
Y390440D01*
X458060D02*
X542060D01*
X458060D02*
X542060D01*
X458060Y300440D02*
Y390440D01*
Y300440D02*
Y390440D01*
Y300440D02*
X542060D01*
X458060D02*
X542060D01*
Y317720D01*
Y300440D02*
Y317720D01*
X364510Y712470D02*
X430510D01*
X352160Y814070D02*
X430510D01*
X945600Y593180D02*
X993120D01*
X945600D02*
X993120D01*
X945600Y509180D02*
Y593180D01*
Y509180D02*
Y593180D01*
Y509180D02*
X1035600D01*
X945600D02*
X1035600D01*
Y593180D01*
Y509180D02*
Y593180D01*
X1018320D02*
X1035600D01*
X1018320D02*
X1035600D01*
X947110Y347340D02*
X953610D01*
X947110D02*
Y434340D01*
X1038110D01*
Y347340D02*
Y434340D01*
X971610Y347340D02*
X1038110D01*
X290010Y573420D02*
Y644420D01*
X314510D01*
Y573420D02*
Y644420D01*
X290010Y573420D02*
X314510D01*
X302260Y533920D02*
Y573420D01*
Y644420D02*
Y683920D01*
X353510Y441340D02*
Y512340D01*
X378010D01*
Y441340D02*
Y512340D01*
X353510Y441340D02*
X378010D01*
X365760Y401840D02*
Y441340D01*
Y512340D02*
Y551840D01*
X400500Y442610D02*
Y513610D01*
X425000D01*
Y442610D02*
Y513610D01*
X400500Y442610D02*
X425000D01*
X412750Y403110D02*
Y442610D01*
Y513610D02*
Y553110D01*
X749260Y317750D02*
Y349250D01*
X642560Y317750D02*
X749260D01*
X642560D02*
Y364750D01*
X875060Y315530D02*
Y347980D01*
X770860Y315530D02*
X875060D01*
X770860D02*
Y365330D01*
X510220Y781310D02*
Y827810D01*
X533720D01*
Y781310D02*
Y827810D01*
X510220Y781310D02*
X533720D01*
X510220Y793060D02*
X521970Y781310D01*
Y745440D02*
Y781310D01*
Y827810D02*
Y863680D01*
X552130Y780040D02*
Y826540D01*
X575630D01*
Y780040D02*
Y826540D01*
X552130Y780040D02*
X575630D01*
X552130Y791790D02*
X563880Y780040D01*
Y744170D02*
Y780040D01*
Y826540D02*
Y862410D01*
X707390Y838820D02*
Y878320D01*
Y728320D02*
Y767820D01*
X695140D02*
X719640D01*
Y838820D01*
X695140D02*
X719640D01*
X695140Y767820D02*
Y838820D01*
X775970D02*
Y878320D01*
Y728320D02*
Y767820D01*
X763720D02*
X788220D01*
Y838820D01*
X763720D02*
X788220D01*
X763720Y767820D02*
Y838820D01*
X835660Y837550D02*
Y877050D01*
Y727050D02*
Y766550D01*
X823410D02*
X847910D01*
Y837550D01*
X823410D02*
X847910D01*
X823410Y766550D02*
Y837550D01*
X770890Y601240D02*
Y640740D01*
Y490740D02*
Y530240D01*
X758640D02*
X783140D01*
Y601240D01*
X758640D02*
X783140D01*
X758640Y530240D02*
Y601240D01*
X706120Y599970D02*
Y639470D01*
Y489470D02*
Y528970D01*
X693870D02*
X718370D01*
Y599970D01*
X693870D02*
X718370D01*
X693870Y528970D02*
Y599970D01*
X836930Y601330D02*
Y640830D01*
Y490830D02*
Y530330D01*
X824680D02*
X849180D01*
Y601330D01*
X824680D02*
X849180D01*
X824680Y530330D02*
Y601330D01*
D11*
X617934Y646388D02*
G03*
X575892Y646351I-21035J15282D01*
G01*
X578405Y619802D02*
G03*
X620448Y619839I21035J-15282D01*
G01*
X575878Y646370D02*
X617921D01*
X578419Y619820D02*
X620462D01*
X982020Y850280D02*
Y863280D01*
X897020Y850280D02*
X982020D01*
X867020Y964880D02*
Y990280D01*
X982020D01*
Y914080D02*
Y990280D01*
D12*
X561258Y688806D02*
X551262D01*
Y683807D01*
X552928Y682141D01*
X554594D01*
X556260D01*
X557926Y683807D01*
Y688806D01*
Y672144D02*
Y677143D01*
X556260Y678809D01*
X552928D01*
X551262Y677143D01*
Y672144D01*
X561258Y662148D02*
Y668812D01*
X556260D01*
X557926Y665480D01*
Y663814D01*
X556260Y662148D01*
X552928D01*
X551262Y663814D01*
Y667146D01*
X552928Y668812D01*
X561258Y652151D02*
Y658815D01*
X556260D01*
X557926Y655483D01*
Y653817D01*
X556260Y652151D01*
X552928D01*
X551262Y653817D01*
Y657149D01*
X552928Y658815D01*
X559592Y648819D02*
X561258Y647152D01*
Y643820D01*
X559592Y642154D01*
X557926D01*
X556260Y643820D01*
X554594Y642154D01*
X552928D01*
X551262Y643820D01*
Y647152D01*
X552928Y648819D01*
X554594D01*
X556260Y647152D01*
X557926Y648819D01*
X559592D01*
X556260Y647152D02*
Y643820D01*
X602784Y549828D02*
Y539832D01*
X607783D01*
X609449Y541498D01*
Y543164D01*
Y544830D01*
X607783Y546496D01*
X602784D01*
X619445D02*
X614447D01*
X612781Y544830D01*
Y541498D01*
X614447Y539832D01*
X619445D01*
X629442Y549828D02*
X622778D01*
Y544830D01*
X626110Y546496D01*
X627776D01*
X629442Y544830D01*
Y541498D01*
X627776Y539832D01*
X624444D01*
X622778Y541498D01*
X637773Y539832D02*
Y549828D01*
X632775Y544830D01*
X639439D01*
X642771Y549828D02*
X649436D01*
Y548162D01*
X642771Y541498D01*
Y539832D01*
X387376Y281938D02*
X384837Y284478D01*
X379759D01*
X377220Y281938D01*
Y271782D01*
X379759Y269242D01*
X384837D01*
X387376Y271782D01*
Y276860D01*
X382298D01*
X394994Y279399D02*
X400072D01*
X402611Y276860D01*
Y269242D01*
X394994D01*
X392455Y271782D01*
X394994Y274321D01*
X402611D01*
X407690Y269242D02*
X412768D01*
X410229D01*
Y279399D01*
X407690D01*
X420386Y269242D02*
Y279399D01*
X428003D01*
X430542Y276860D01*
Y269242D01*
X461012Y281938D02*
X458473Y284478D01*
X453395D01*
X450856Y281938D01*
Y279399D01*
X453395Y276860D01*
X458473D01*
X461012Y274321D01*
Y271782D01*
X458473Y269242D01*
X453395D01*
X450856Y271782D01*
X473708Y269242D02*
X468630D01*
X466091Y271782D01*
Y276860D01*
X468630Y279399D01*
X473708D01*
X476248Y276860D01*
Y274321D01*
X466091D01*
X481326Y269242D02*
X486404D01*
X483865D01*
Y284478D01*
X481326D01*
X501639Y269242D02*
X496561D01*
X494022Y271782D01*
Y276860D01*
X496561Y279399D01*
X501639D01*
X504179Y276860D01*
Y274321D01*
X494022D01*
X519414Y279399D02*
X511796D01*
X509257Y276860D01*
Y271782D01*
X511796Y269242D01*
X519414D01*
X527031Y281938D02*
Y279399D01*
X524492D01*
X529570D01*
X527031D01*
Y271782D01*
X529570Y269242D01*
X539727D02*
X544805D01*
X547345Y271782D01*
Y276860D01*
X544805Y279399D01*
X539727D01*
X537188Y276860D01*
Y271782D01*
X539727Y269242D01*
X552423Y279399D02*
Y269242D01*
Y274321D01*
X554962Y276860D01*
X557501Y279399D01*
X560040D01*
X872495Y731523D02*
X877573D01*
X880113Y734062D01*
Y739140D01*
X877573Y741679D01*
X872495D01*
X869956Y739140D01*
Y734062D01*
X872495Y731523D01*
X895348Y741679D02*
X887730D01*
X885191Y739140D01*
Y734062D01*
X887730Y731523D01*
X895348D01*
X900426D02*
X905504D01*
X902965D01*
Y746758D01*
X900426Y744218D01*
X1021085Y798832D02*
X1026164D01*
X1023624D01*
Y808989D01*
X1021085D01*
X1043938D02*
X1036320D01*
X1033781Y806450D01*
Y801372D01*
X1036320Y798832D01*
X1043938D01*
X1049016D02*
X1054095D01*
X1051555D01*
Y814068D01*
X1049016Y811528D01*
X920750Y660397D02*
X910594D01*
Y652780D01*
X915672Y655319D01*
X918211D01*
X920750Y652780D01*
Y647702D01*
X918211Y645163D01*
X913133D01*
X910594Y647702D01*
X925829Y645163D02*
Y660397D01*
Y650241D02*
X933446Y655319D01*
X925829Y650241D02*
X933446Y645163D01*
X930908Y480071D02*
X915673D01*
Y487689D01*
X918212Y490228D01*
X923290D01*
X925829Y487689D01*
Y480071D01*
X930908Y497845D02*
Y502924D01*
X928368Y505463D01*
X923290D01*
X920751Y502924D01*
Y497845D01*
X923290Y495306D01*
X928368D01*
X930908Y497845D01*
X920751Y510541D02*
X928368D01*
X930908Y513080D01*
X928368Y515620D01*
X930908Y518159D01*
X928368Y520698D01*
X920751D01*
X930908Y533394D02*
Y528316D01*
X928368Y525776D01*
X923290D01*
X920751Y528316D01*
Y533394D01*
X923290Y535933D01*
X925829D01*
Y525776D01*
X920751Y541011D02*
X930908D01*
X925829D01*
X923290Y543551D01*
X920751Y546090D01*
Y548629D01*
X1074417Y386070D02*
Y380991D01*
Y383531D01*
X1059182D01*
Y386070D01*
Y380991D01*
Y373374D02*
X1069338D01*
Y365756D01*
X1066799Y363217D01*
X1059182D01*
X1054103Y358139D02*
X1069338D01*
Y350521D01*
X1066799Y347982D01*
X1061721D01*
X1059182Y350521D01*
Y358139D01*
X1069338Y342904D02*
X1061721D01*
X1059182Y340364D01*
Y332747D01*
X1069338D01*
X1071878Y325129D02*
X1069338D01*
Y327669D01*
Y322590D01*
Y325129D01*
X1061721D01*
X1059182Y322590D01*
X1028701Y968998D02*
Y963920D01*
X1031240Y961380D01*
X1036319D01*
X1038858Y963920D01*
Y968998D01*
X1036319Y971537D01*
X1031240D01*
X1028701Y968998D01*
X1038858Y956302D02*
X1031240D01*
X1028701Y953763D01*
Y946145D01*
X1038858D01*
X1041397Y938528D02*
X1038858D01*
Y941067D01*
Y935989D01*
Y938528D01*
X1031240D01*
X1028701Y935989D01*
X1023623Y928371D02*
X1038858D01*
Y920754D01*
X1036319Y918214D01*
X1031240D01*
X1028701Y920754D01*
Y928371D01*
X1038858Y913136D02*
X1031240D01*
X1028701Y910597D01*
Y902979D01*
X1038858D01*
X1041397Y895362D02*
X1038858D01*
Y897901D01*
Y892823D01*
Y895362D01*
X1031240D01*
X1028701Y892823D01*
X388631Y825501D02*
X393709D01*
X396248Y828040D01*
Y833118D01*
X393709Y835658D01*
X388631D01*
X386091Y833118D01*
Y828040D01*
X388631Y825501D01*
X401327Y820423D02*
Y835658D01*
X408944D01*
X411483Y833118D01*
Y828040D01*
X408944Y825501D01*
X401327D01*
X419101Y835658D02*
X424179D01*
X426718Y833118D01*
Y825501D01*
X419101D01*
X416562Y828040D01*
X419101Y830579D01*
X426718D01*
X431797Y825501D02*
Y835658D01*
X434336D01*
X436875Y833118D01*
Y825501D01*
Y833118D01*
X439414Y835658D01*
X441953Y833118D01*
Y825501D01*
X447032Y820423D02*
Y835658D01*
X454649D01*
X457188Y833118D01*
Y828040D01*
X454649Y825501D01*
X447032D01*
X397519Y655318D02*
X400058Y657857D01*
X405137D01*
X407676Y655318D01*
Y652778D01*
X405137Y650239D01*
X402597D01*
X405137D01*
X407676Y647700D01*
Y645161D01*
X405137Y642622D01*
X400058D01*
X397519Y645161D01*
X412754Y655318D02*
X415293Y657857D01*
X420372D01*
X422911Y655318D01*
Y652778D01*
X420372Y650239D01*
X417832D01*
X420372D01*
X422911Y647700D01*
Y645161D01*
X420372Y642622D01*
X415293D01*
X412754Y645161D01*
X427989Y637543D02*
Y652778D01*
X435607D01*
X438146Y650239D01*
Y645161D01*
X435607Y642622D01*
X427989D01*
X453381Y657857D02*
X443224D01*
Y650239D01*
X448303D01*
X443224D01*
Y642622D01*
X444500Y422912D02*
X434344D01*
X444500Y433069D01*
Y435608D01*
X441961Y438148D01*
X436883D01*
X434344Y435608D01*
X449579Y422912D02*
Y438148D01*
Y427991D02*
X457196Y433069D01*
X449579Y427991D02*
X457196Y422912D01*
X533402Y549901D02*
Y544823D01*
Y547362D01*
X548638D01*
X546098Y549901D01*
Y537206D02*
X548638Y534666D01*
Y529588D01*
X546098Y527049D01*
X535942D01*
X533402Y529588D01*
Y534666D01*
X535942Y537206D01*
X546098D01*
X543559Y521970D02*
X535942D01*
X533402Y519431D01*
Y511814D01*
X543559D01*
X548638Y496579D02*
Y506735D01*
X541020D01*
Y501657D01*
Y506735D01*
X533402D01*
X342897Y434346D02*
Y439425D01*
Y436885D01*
X327662D01*
X330202Y434346D01*
Y447042D02*
X327662Y449581D01*
Y454660D01*
X330202Y457199D01*
X340358D01*
X342897Y454660D01*
Y449581D01*
X340358Y447042D01*
X330202D01*
Y462277D02*
X327662Y464816D01*
Y469895D01*
X330202Y472434D01*
X340358D01*
X342897Y469895D01*
Y464816D01*
X340358Y462277D01*
X330202D01*
X323852Y629910D02*
Y624831D01*
Y627370D01*
X339087D01*
X336548Y629910D01*
Y617214D02*
X339087Y614675D01*
Y609596D01*
X336548Y607057D01*
X326391D01*
X323852Y609596D01*
Y614675D01*
X326391Y617214D01*
X336548D01*
X323852Y601979D02*
X339087D01*
X328930D02*
X334009Y594361D01*
X328930Y601979D02*
X323852Y594361D01*
X321313Y586744D02*
Y576587D01*
X323852Y571509D02*
Y566430D01*
Y568969D01*
X339087D01*
X336548Y571509D01*
X641358Y285753D02*
Y300988D01*
X648976D01*
X651515Y298449D01*
Y293371D01*
X648976Y290832D01*
X641358D01*
X656593D02*
Y300988D01*
X664211D01*
X666750Y298449D01*
Y290832D01*
X671828Y285753D02*
Y300988D01*
X679446D01*
X681985Y298449D01*
Y293371D01*
X679446Y290832D01*
X671828D01*
X687063D02*
X692142D01*
X689603D01*
Y306067D01*
X687063Y303528D01*
X772088Y284482D02*
Y294638D01*
X779706D01*
X782245Y292099D01*
Y284482D01*
X787323Y279403D02*
Y294638D01*
X794941D01*
X797480Y292099D01*
Y287021D01*
X794941Y284482D01*
X787323D01*
X802558D02*
Y294638D01*
X810176D01*
X812715Y292099D01*
Y284482D01*
X817793D02*
X822871D01*
X820332D01*
Y299717D01*
X817793Y297178D01*
X510544Y935987D02*
Y920752D01*
X518162D01*
X520701Y923292D01*
Y933448D01*
X518162Y935987D01*
X510544D01*
X525779Y933448D02*
X528318Y935987D01*
X533397D01*
X535936Y933448D01*
Y930909D01*
X530858Y925831D01*
Y923292D02*
Y920752D01*
X556264Y935987D02*
Y920752D01*
X563882D01*
X566421Y923292D01*
Y933448D01*
X563882Y935987D01*
X556264D01*
X571499Y933448D02*
X574038Y935987D01*
X579117D01*
X581656Y933448D01*
Y930909D01*
X576577Y925831D01*
Y923292D02*
Y920752D01*
X801373Y590541D02*
Y585463D01*
Y588002D01*
X816608D01*
X814068Y590541D01*
Y577845D02*
X816608Y575306D01*
Y570228D01*
X814068Y567689D01*
X803912D01*
X801373Y570228D01*
Y575306D01*
X803912Y577845D01*
X814068D01*
Y562610D02*
X816608Y560071D01*
Y554993D01*
X814068Y552454D01*
X803912D01*
X801373Y554993D01*
Y560071D01*
X803912Y562610D01*
X814068D01*
X801373Y547375D02*
X816608D01*
Y539758D01*
X814068Y537219D01*
X808990D01*
X806451Y539758D01*
Y547375D01*
Y542297D02*
X801373Y537219D01*
X579120Y479806D02*
X584198D01*
X581659D01*
Y495041D01*
X579120Y492502D01*
X591816D02*
X594355Y495041D01*
X599433D01*
X601973Y492502D01*
Y482345D01*
X599433Y479806D01*
X594355D01*
X591816Y482345D01*
Y492502D01*
X607051Y489963D02*
Y482345D01*
X609590Y479806D01*
X617208D01*
Y489963D01*
X632443Y495041D02*
X622286D01*
Y487424D01*
X627364D01*
X622286D01*
Y479806D01*
X807726Y922022D02*
X812804D01*
X810265D01*
Y937258D01*
X807726Y934718D01*
X820422D02*
X822961Y937258D01*
X828039D01*
X830578Y934718D01*
Y924562D01*
X828039Y922022D01*
X822961D01*
X820422Y924562D01*
Y934718D01*
X835657Y922022D02*
Y937258D01*
Y927101D02*
X843274Y932179D01*
X835657Y927101D02*
X843274Y922022D01*
X730253Y651504D02*
X745488D01*
X737870Y659122D01*
Y648965D01*
X730253Y643887D02*
X732792D01*
Y641348D01*
X730253D01*
Y643887D01*
X745488Y631191D02*
Y621034D01*
X742948D01*
X732792Y631191D01*
X730253D01*
Y615956D02*
X745488D01*
X735331D02*
X740409Y608338D01*
X735331Y615956D02*
X730253Y608338D01*
X692155Y927103D02*
X681998D01*
X692155Y937259D01*
Y939798D01*
X689616Y942337D01*
X684537D01*
X681998Y939798D01*
X697233Y927103D02*
Y929642D01*
X699772D01*
Y927103D01*
X697233D01*
X720086D02*
X709929D01*
X720086Y937259D01*
Y939798D01*
X717547Y942337D01*
X712468D01*
X709929Y939798D01*
X725164Y927103D02*
Y942337D01*
Y932181D02*
X732782Y937259D01*
X725164Y932181D02*
X732782Y927103D01*
X836938Y664212D02*
X842016D01*
X839477D01*
Y679447D01*
X836938Y676908D01*
X849634Y664212D02*
Y679447D01*
X857251D01*
X859790Y676908D01*
Y671830D01*
X857251Y669290D01*
X849634D01*
X854712D02*
X859790Y664212D01*
X864869Y661673D02*
X875025D01*
X880104Y664212D02*
X885182D01*
X882643D01*
Y679447D01*
X880104Y676908D01*
X756924Y924563D02*
X762002D01*
X759463D01*
Y939798D01*
X756924Y937258D01*
X769620Y924563D02*
Y939798D01*
X777237D01*
X779776Y937258D01*
Y932180D01*
X777237Y929641D01*
X769620D01*
X774698D02*
X779776Y924563D01*
M02*
